<svg xmlns="http://www.w3.org/2000/svg" width="193" height="85"><path fill="#254AA5" d="M3.64 41.297q-.854-.251-1.374-.649l.609-1.343q.493.363 1.18.586.684.217 1.367.218.767.001 1.129-.226.363-.228.363-.602a.57.57 0 0 0-.215-.457 1.7 1.7 0 0 0-.55-.293 10 10 0 0 0-.915-.242q-.88-.21-1.445-.422a2.36 2.36 0 0 1-.965-.672q-.404-.463-.402-1.238 0-.674.363-1.219.365-.544 1.098-.867.732-.321 1.793-.32c.496 0 .976.058 1.449.176q.705.18 1.234.507l-.55 1.36c-.715-.407-1.43-.606-2.141-.606-.504 0-.871.078-1.11.242q-.361.241-.359.641 0 .398.414.59.415.193 1.262.379c.59.14 1.07.281 1.45.422q.56.21.964.66c.27.305.402.71.402 1.226q-.001.662-.37 1.211-.371.547-1.11.864-.737.321-1.797.32a6.4 6.4 0 0 1-1.773-.246m10.222-1.657c.282-.296.422-.699.422-1.199q0-.749-.422-1.199-.427-.445-1.09-.445-.66 0-1.093.445-.429.45-.43 1.2.001.752.43 1.199.432.445 1.093.445.663 0 1.09-.445m-2.773 1.468a2.93 2.93 0 0 1-1.164-1.09q-.42-.691-.418-1.578c0-.59.137-1.113.418-1.578a2.9 2.9 0 0 1 1.164-1.086 3.56 3.56 0 0 1 1.683-.394q.937.001 1.68.394.738.388 1.16 1.086.418.696.418 1.578 0 .886-.418 1.579a2.94 2.94 0 0 1-1.16 1.09q-.743.39-1.68.39-.938 0-1.683-.39m12.09-5.637v5.937h-1.633v-.703q-.343.386-.817.59-.475.204-1.027.203-1.17 0-1.855-.672-.685-.675-.684-2v-3.355h1.723v3.101c0 .957.398 1.434 1.203 1.434q.616.001.992-.403c.25-.265.375-.667.375-1.195v-2.937Zm5.539 5.652a1.8 1.8 0 0 1-.621.281q-.373.094-.782.094-1.059 0-1.636-.543-.581-.539-.582-1.586V36.93h-.914v-1.325h.914V34.16h1.722v1.445h1.48v1.325h-1.48v2.418q.001.374.196.578c.129.136.308.203.547.203.269 0 .503-.07.695-.219Zm6.391-5.078q.68.663.68 1.965v3.398h-1.724v-3.133q.001-.709-.308-1.054-.31-.346-.895-.348-.65 0-1.039.402-.387.403-.387 1.2v2.933h-1.722v-8.19h1.723v2.87a2.3 2.3 0 0 1 .828-.523 3 3 0 0 1 1.058-.183q1.107 0 1.785.664m10.676 3.784c.238-.152.36-.395.36-.715q-.001-.96-1.426-.96h-2.086v1.91h2.086q.709 0 1.066-.235m-3.152-4.8v1.82h1.777q.664-.002 1.004-.23.342-.235.344-.684c0-.305-.117-.528-.344-.68q-.34-.228-1.004-.227Zm4.933 3.062q.375.491.375 1.21.001 1.013-.789 1.563c-.523.363-1.293.547-2.3.547h-3.997v-7.73h3.774c.941 0 1.668.18 2.172.543q.755.538.754 1.464 0 .563-.27 1.008a1.9 1.9 0 0 1-.758.696c.446.14.79.37 1.04.699m4.8 2.043a1.13 1.13 0 0 0 .485-.602v-.61h-1.18q-1.062.001-1.063.7-.001.33.262.523.259.194.711.192.44 0 .785-.203m1.465-4.098q.743.661.742 1.984v3.387h-1.613v-.738q-.485.826-1.809.828-.684-.001-1.187-.23a1.76 1.76 0 0 1-.766-.641 1.65 1.65 0 0 1-.265-.93q0-.825.62-1.3.628-.476 1.926-.477h1.372q0-.564-.344-.863-.34-.305-1.028-.305-.473-.002-.93.148a2.5 2.5 0 0 0-.78.403l-.618-1.203a3.8 3.8 0 0 1 1.164-.532 5.2 5.2 0 0 1 1.399-.187q1.378 0 2.117.656m2.308-2.82h1.723v8.191h-1.722Zm7.286 7.906a1.7 1.7 0 0 1-.625.281 3 3 0 0 1-.778.094q-1.06 0-1.64-.543-.576-.539-.578-1.586V36.93h-.918v-1.325h.918V34.16h1.722v1.445h1.48v1.325h-1.48v2.418q0 .374.192.578.194.204.547.203c.273 0 .504-.07.695-.219Zm.992-5.652h1.723v5.937h-1.723Zm.086-1.106a.9.9 0 0 1-.297-.683q0-.41.297-.684.3-.276.773-.277.475.001.774.265.298.265.297.664a.94.94 0 0 1-.297.711q-.3.282-.774.282-.474.002-.773-.278m4.41 6.743a2.96 2.96 0 0 1-1.184-1.09 2.97 2.97 0 0 1-.425-1.579c0-.59.144-1.113.425-1.578.286-.465.68-.824 1.184-1.086a3.64 3.64 0 0 1 1.703-.394q.938.001 1.64.394.705.392 1.02 1.118l-1.332.718q-.468-.815-1.336-.816-.675 0-1.117.441-.44.441-.441 1.203 0 .762.441 1.204c.293.296.668.44 1.117.44.586 0 1.032-.269 1.336-.815l1.332.73c-.21.469-.55.84-1.02 1.102q-.702.398-1.64.398-.948 0-1.703-.39"/><path fill="#99A1D9" d="M56.637 12.863c1.008 0 1.68.637 1.937 1.617q1.336.122 2.637.262c-.367-2.234-1.832-4.058-4.574-4.058-2.188 0-3.852 1.39-4.473 3.308q1.319.082 2.613.176c.34-.809.98-1.305 1.86-1.305"/><path fill="#254AA5" d="M51.902 15.707c0 2.934 2.125 4.953 5.004 4.953 1.735 0 3.024-.68 3.918-1.789l-1.558-1.375c-.75.695-1.41.984-2.325.984-1.214 0-2.074-.644-2.34-1.878h6.669c.02-.25.035-.5.035-.715a7 7 0 0 0-.094-1.145q-1.3-.14-2.637-.262c.04.133.067.278.086.422h-4.097q.071-.399.214-.734-1.294-.094-2.613-.176a5.5 5.5 0 0 0-.262 1.68Zm0 0"/><path fill="#99A1D9" d="M5.457 7.93H2.703v8.46q1.343-.252 2.754-.488Zm16.833 5.258h2.253v-2.325h-2.254V8.414H19.57v2.45h-1.144v2.323h1.144v1.051q1.348-.104 2.72-.191Zm8.526-.325c.668 0 1.188.282 1.54.758q1.357-.03 2.726-.043c-.629-1.668-2.02-2.894-4.266-2.894-2.12 0-3.753 1.304-4.414 3.136q1.39-.066 2.801-.113a1.89 1.89 0 0 1 1.613-.844m11.536.747q.368-.083.785-.083h.144v-2.843c-1.61-.07-2.504.785-3.058 2.109v-1.93h-2.715v2.703h.148q2.368-.002 4.696.043m8.261-.082h.14v-2.843c-1.608-.07-2.5.785-3.054 2.109v-1.93H44.98v2.809q2.122.063 4.196.16c.406-.203.89-.305 1.437-.305m14.645 1.664v-.039c0-1.304 1-2.214 2.324-2.214s2.344.91 2.344 2.214v.04q-.002.374-.114.706 1.432.234 2.793.493v-5.528h-2.718v1.25c-.73-.804-1.606-1.43-3.09-1.43-2.133 0-4.121 1.512-4.246 4.208q1.377.156 2.707.332zM11.73 13.207c.18-.086.579-.172.774-.172s.594.086.773.172c.692.328 1.004.82 1.094 1.504q1.291-.136 2.617-.254c-.304-1.395-1.14-2.57-2.43-3.227-.59-.3-1.277-.546-2.054-.546s-1.465.246-2.055.546c-1.61.817-2.511 2.442-2.558 4.293q1.334-.193 2.714-.37c.004-.93.293-1.551 1.125-1.946"/><path fill="#254AA5" d="M5.457 20.445v-4.543q-1.412.236-2.754.489v4.054Zm16.903.16c.913 0 1.574-.214 2.144-.55V17.87c-.39.215-.84.34-1.34.34-.605 0-.875-.305-.875-.93v-3.234q-1.37.086-2.719.191v3.489c0 2.218 1.13 2.878 2.79 2.878m3.718-4.897c0 2.934 2.129 4.953 5.008 4.953 1.734 0 3.023-.68 3.914-1.789l-1.555-1.375c-.75.695-1.41.984-2.324.984-1.215 0-2.074-.644-2.34-1.878h6.668c.02-.25.035-.5.035-.715 0-.813-.132-1.602-.402-2.309-.914.008-1.82.024-2.727.043.25.336.415.774.485 1.281h-4.098a3 3 0 0 1 .461-1.195q-1.412.048-2.8.113a5.5 5.5 0 0 0-.325 1.852Zm14.145 4.738v-3.539c0-1.933.793-3.011 2.129-3.297q-2.328-.045-4.696-.046l-.152.003v6.88Zm7.477 0v-3.539c0-1.597.538-2.605 1.476-3.074a239 239 0 0 0-4.196-.16v6.773Zm14.84-5.254c0 2.84 2.019 4.47 4.253 4.47 1.45 0 2.328-.59 3.129-1.56v.47c0 1.714-.875 2.609-2.734 2.609-1.27 0-2.25-.32-3.235-.875l-.93 2.035c1.215.644 2.68 1.004 4.235 1.004 1.863 0 3.238-.395 4.133-1.29.804-.804 1.214-2.054 1.214-3.773v-1.89q-1.358-.258-2.789-.493c-.296.915-1.168 1.508-2.234 1.508-1.312 0-2.305-.879-2.324-2.183q-1.331-.176-2.707-.332c-.004.086-.012.172-.012.261Zm-48.138-.015v5.265h2.72v-4.773c0-.414-.048-.82-.134-1.211q-1.323.118-2.617.254c.02.148.031.3.031.465m-6.515.527v4.738h2.718v-5.289q-1.383.178-2.714.371c0 .047-.004.098-.004.145ZM83 2.246h32.914v22.168H83Zm0 0"/><path fill="#FFF" d="M116.258 1.898H82.656v22.864h33.602Zm-.692 22.172H83.348V2.59h32.218Zm0 0"/><path fill="#FFF200" d="m105.285 9.488.258-.812.262.812h.851l-.691.496.262.801-.684-.496-.676.496.258-.8-.691-.497Zm-6.094-3.515.262-.813.258.809h.852l-.692.5.262.8-.68-.496-.683.497.257-.801-.687-.5ZM91.3 13.012h.852l.262-.813.258.813h.851l-.687.496.258.8-.68-.495-.68.496.258-.801Zm2.74 4.824-.685-.5-.675.5.257-.805-.69-.496h.85l.258-.812.262.812h.852l-.692.496Zm-.263-7.844.262.801-.684-.492-.675.492.257-.8-.69-.497h.85l.258-.812.262.812h.852Zm1.895-3.074.258-.813.261.813h.852l-.691.496.257.8-.675-.495-.68.496.258-.8-.692-.497Zm.945 13.496-.68-.496-.68.496.259-.8-.692-.497h.852l.261-.812.262.812h.852l-.692.496Zm3.516.934-.68-.496-.683.496.261-.801-.691-.496h.851l.262-.813.258.813h.852l-.692.496Zm3.512-.934-.68-.496-.68.496.258-.8-.688-.497h.848l.262-.812.262.812h.851l-.691.496Zm-.247-13 .258.8-.68-.495-.68.496.259-.8-.692-.497h.852l.262-.813.257.813h.852Zm2.829 10.422-.68-.5-.68.5.258-.805-.691-.496h.851l.262-.812.258.812h.851l-.691.496Zm.933-3.536-.68-.495-.68.496.259-.805-.692-.496.852.004.261-.816.258.812h.852l-.692.496Zm0 0"/><path fill="#254AA5" d="m124.559 9.594 1.039.328c-.157.578-.422 1.012-.793 1.293s-.844.422-1.41.422q-1.059 0-1.743-.723-.68-.724-.68-1.976c0-.887.227-1.57.684-2.063q.687-.731 1.801-.73.978-.001 1.586.574c.238.226.422.554.543.98l-1.063.254a1.1 1.1 0 0 0-.394-.652q-.3-.241-.727-.242c-.394 0-.71.144-.957.425q-.368.423-.367 1.371 0 1.01.363 1.438.36.427.942.426.428 0 .734-.27.309-.275.442-.855m2.761.027q-.001.575.274.879c.18.203.402.3.668.3a.85.85 0 0 0 .668-.3q.27-.305.27-.887 0-.562-.27-.867a.86.86 0 0 0-.668-.305.86.86 0 0 0-.668.305q-.275.303-.274.875m-1.043-.055q-.001-.508.25-.98.252-.475.707-.727.46-.248 1.024-.25c.582 0 1.058.192 1.433.567.371.379.555.86.555 1.433q0 .874-.562 1.45-.563.574-1.418.574c-.352 0-.688-.082-1.008-.238a1.65 1.65 0 0 1-.73-.704q-.252-.462-.25-1.125m4.652-.456h2v1.019h-2Zm2.14-1.41h.567v-.294q.001-.484.101-.722a.82.82 0 0 1 .383-.391q.276-.147.7-.148c.288 0 .574.043.85.128l-.136.711a2 2 0 0 0-.469-.058q-.222.001-.316.101-.099.105-.098.399v.273h.762V8.5h-.762v3.047h-1.015V8.5h-.567Zm5.45 3.847v-.578q-.212.31-.551.484c-.23.121-.469.18-.727.18q-.386-.001-.695-.172a1.03 1.03 0 0 1-.445-.477c-.09-.207-.137-.488-.137-.851V7.695h1.02v1.77q0 .814.054.996.059.183.203.289.152.105.38.105a.83.83 0 0 0 .468-.14.75.75 0 0 0 .281-.356q.075-.211.074-1.039V7.695h1.02v3.852Zm5.5 0H143V9.582q0-.621-.062-.809a.56.56 0 0 0-.215-.28.6.6 0 0 0-.352-.102.8.8 0 0 0-.476.144.7.7 0 0 0-.286.383q-.08.239-.078.883v1.746h-1.02V7.695h.946v.567q.503-.652 1.27-.653c.222 0 .43.043.613.121q.28.124.426.313.14.187.199.426.054.239.055.683Zm1.843-2.007q.001.614.172.89.247.398.688.398.351 0 .597-.3t.246-.891q.001-.664-.238-.957a.76.76 0 0 0-.613-.29.75.75 0 0 0-.606.29q-.246.285-.246.86m2.719 2.003h-.945v-.563a1.55 1.55 0 0 1-.559.493c-.21.105-.43.16-.644.16q-.662-.001-1.137-.535-.474-.533-.473-1.493 0-.979.461-1.484c.305-.34.695-.512 1.16-.512q.647 0 1.118.54V6.233h1.019Zm3.289-2.25c-.008-.297-.082-.52-.23-.672a.7.7 0 0 0-.528-.23.7.7 0 0 0-.55.242q-.216.24-.215.66Zm-.059 1.027 1.016.172q-.198.556-.617.848-.427.293-1.059.293-1.003 0-1.484-.656-.38-.527-.379-1.325c0-.64.164-1.14.5-1.5a1.65 1.65 0 0 1 1.262-.543c.574 0 1.023.192 1.355.567q.496.568.477 1.738h-2.551c.004.3.086.54.246.707q.235.251.586.25.24 0 .402-.129.165-.135.246-.422m2.711-.78q0 .614.168.89.246.398.692.398.351 0 .597-.3.247-.3.247-.891-.002-.664-.239-.957a.77.77 0 0 0-.613-.29.75.75 0 0 0-.605.29q-.247.285-.247.86m2.715 2.003h-.945v-.563a1.54 1.54 0 0 1-.555.493q-.323.159-.644.16-.668-.001-1.137-.535-.474-.533-.473-1.493 0-.979.457-1.484.463-.511 1.164-.512.644 0 1.118.54V6.233h1.015Zm4.035-2.003q0 .595.188.882.264.406.703.406c.227 0 .414-.098.574-.289s.239-.496.239-.906q-.002-.662-.239-.953a.77.77 0 0 0-.613-.29.76.76 0 0 0-.61.286q-.241.281-.242.863m-1.011 2.004V6.234h1.02v1.914q.468-.539 1.113-.539a1.5 1.5 0 0 1 1.164.512q.461.505.46 1.461 0 .985-.468 1.52c-.313.351-.696.53-1.14.53q-.331 0-.65-.163a1.6 1.6 0 0 1-.554-.489v.563Zm4.093-3.843h1.083l.921 2.73.899-2.73h1.054l-1.359 3.702-.242.668c-.09.227-.176.395-.254.516a1.2 1.2 0 0 1-.281.289 1.4 1.4 0 0 1-.387.172q-.23.058-.52.058t-.578-.058l-.09-.797q.241.047.43.047.358 0 .528-.211.169-.207.261-.531Zm-41.437 8.902v.812h-.695v1.55q0 .47.02.548a.22.22 0 0 0 .089.129.28.28 0 0 0 .172.05q.14.002.41-.097l.086.789a2 2 0 0 1-.805.152 1.4 1.4 0 0 1-.496-.09.73.73 0 0 1-.324-.242 1 1 0 0 1-.14-.394q-.036-.178-.036-.72v-1.675h-.465v-.812h.465v-.766l1.024-.594v1.36Zm1.722-1.465v1.953q.493-.574 1.176-.574.352 0 .637.129.282.13.422.335.148.199.195.45.054.246.055.761v2.258h-1.02v-2.031q-.001-.607-.054-.77a.5.5 0 0 0-.207-.257.64.64 0 0 0-.367-.098.85.85 0 0 0-.454.125.7.7 0 0 0-.293.371q-.089.247-.09.734v1.926h-1.019v-5.312Zm5.805 3.058c-.007-.293-.086-.52-.23-.672a.7.7 0 0 0-.528-.23.71.71 0 0 0-.55.242q-.22.245-.215.66Zm-.058 1.032 1.015.168q-.199.557-.62.851-.423.289-1.055.29-1.006 0-1.485-.657-.382-.522-.383-1.324.001-.957.5-1.496a1.64 1.64 0 0 1 1.266-.543q.856-.001 1.355.566.495.568.473 1.738h-2.55q.01.451.25.703a.76.76 0 0 0 .585.254.64.64 0 0 0 .403-.132q.157-.13.246-.418m3.965 1.223v-5.313h3.941v.898h-2.867v1.18h2.668v.894h-2.668v1.446h2.969v.894Zm7.476 0v-.575c-.14.203-.324.367-.555.484a1.56 1.56 0 0 1-.722.176 1.4 1.4 0 0 1-.696-.168 1.02 1.02 0 0 1-.445-.48q-.136-.306-.137-.852v-2.433h1.02v1.77q-.002.808.055.991a.56.56 0 0 0 .203.293q.15.105.379.106a.8.8 0 0 0 .465-.145.7.7 0 0 0 .285-.355q.075-.209.074-1.04v-1.62h1.02v3.847Zm2.972 0h-1.015v-3.848h.945v.546c.16-.257.31-.43.438-.511a.8.8 0 0 1 .437-.121q.352-.001.672.191l-.316.887q-.259-.166-.477-.168a.56.56 0 0 0-.363.12q-.147.117-.234.427-.084.304-.086 1.289Zm2.723-1.923q0 .57.27.875a.87.87 0 0 0 .672.305.86.86 0 0 0 .668-.305q.27-.304.27-.882 0-.568-.27-.872a.86.86 0 0 0-.668-.304.87.87 0 0 0-.672.304q-.27.306-.27.88m-1.043-.055q0-.51.25-.985a1.73 1.73 0 0 1 .708-.722 2.1 2.1 0 0 1 1.023-.25q.873-.001 1.43.566c.375.379.558.855.558 1.434q0 .872-.562 1.445t-1.418.574q-.528.001-1.008-.238c-.32-.16-.563-.39-.73-.7q-.251-.462-.25-1.124m5.746-.013q0 .645.257.958a.78.78 0 0 0 .625.309.73.73 0 0 0 .59-.282q.239-.285.238-.933 0-.605-.246-.899a.75.75 0 0 0-.601-.293.77.77 0 0 0-.617.29q-.246.284-.246.85m-1.008-1.858h.949v.566q.183-.292.5-.473.313-.18.7-.18.667.001 1.136.524.469.528.469 1.465c0 .644-.157 1.14-.473 1.5-.312.355-.695.531-1.14.531q-.32.002-.579-.125a1.9 1.9 0 0 1-.543-.437v1.941h-1.02Zm6.847 1.593c-.007-.293-.082-.52-.23-.672a.7.7 0 0 0-.527-.23.71.71 0 0 0-.551.242q-.216.245-.215.66Zm-.058 1.032 1.015.168q-.196.557-.617.851-.423.289-1.058.29-1.003 0-1.485-.657-.38-.522-.379-1.324c0-.637.164-1.137.5-1.496q.499-.544 1.262-.543.86-.001 1.356.566.496.568.476 1.738h-2.55q.012.451.245.703a.77.77 0 0 0 .586.254.64.64 0 0 0 .403-.132q.164-.13.246-.418m4.023-.625q-.2.063-.62.156-.425.087-.556.176c-.132.097-.199.214-.199.359s.055.266.16.371a.55.55 0 0 0 .407.156q.276 0 .523-.183a.62.62 0 0 0 .242-.336c.028-.086.043-.254.043-.496Zm-1.363-.825-.926-.168q.158-.556.54-.828.376-.264 1.128-.265.68 0 1.016.16c.222.11.379.242.469.41q.136.247.136.91l-.011 1.188q0 .51.046.75c.036.16.094.332.184.515h-1.008a6 6 0 0 1-.133-.418q-.259.25-.558.38c-.196.085-.41.124-.633.124-.395 0-.711-.105-.938-.32a1.08 1.08 0 0 1-.34-.817q0-.325.153-.582.157-.254.437-.39.282-.134.81-.238.715-.134.991-.25v-.102q-.002-.294-.144-.418-.147-.124-.551-.125-.27-.001-.422.11-.152.105-.246.374m6.867 2.673h-1.02v-1.966q0-.622-.066-.804a.56.56 0 0 0-.21-.285.6.6 0 0 0-.356-.102.83.83 0 0 0-.473.145.75.75 0 0 0-.289.386q-.077.239-.078.883v1.742h-1.016v-3.847h.946v.566q.502-.652 1.27-.652.332 0 .612.12.282.123.422.31.147.188.2.429c.039.156.058.387.058.684Zm3.094-5.313h1.07v2.879q.002.684.04.886c.046.22.156.391.327.524.176.133.41.195.711.195.305 0 .532-.058.688-.183a.75.75 0 0 0 .277-.458q.047-.274.047-.906v-2.937h1.074v2.793q.001.955-.086 1.347a1.5 1.5 0 0 1-.32.668 1.6 1.6 0 0 1-.625.434q-.392.159-1.023.16-.761 0-1.153-.176a1.65 1.65 0 0 1-.62-.457 1.4 1.4 0 0 1-.302-.586q-.105-.457-.105-1.347Zm8.859 5.313h-1.02v-1.966q0-.622-.066-.804a.56.56 0 0 0-.21-.285.6.6 0 0 0-.356-.102.83.83 0 0 0-.473.145.75.75 0 0 0-.289.386q-.077.239-.078.883v1.742h-1.016v-3.847h.946v.566q.503-.652 1.27-.652.332 0 .613.12.281.123.421.31c.098.124.16.269.2.429.039.156.058.387.058.684Zm1.032-3.848h1.015v3.847h-1.015Zm0-1.465h1.015v.941h-1.015Zm2.867 3.39q.002.57.273.875.27.305.672.305a.86.86 0 0 0 .668-.305q.27-.304.27-.882 0-.568-.27-.872a.86.86 0 0 0-.668-.304.86.86 0 0 0-.672.304q-.272.306-.273.88m-1.043-.055c0-.34.086-.668.25-.985.168-.316.402-.554.71-.722a2.1 2.1 0 0 1 1.024-.25q.873-.001 1.43.566t.558 1.434q0 .872-.562 1.445c-.375.383-.852.574-1.418.574q-.532.001-1.012-.238c-.32-.16-.562-.39-.73-.7-.164-.308-.25-.683-.25-1.124m8.269 1.977h-1.02v-1.966q.001-.622-.062-.804a.6.6 0 0 0-.215-.285.6.6 0 0 0-.351-.102.85.85 0 0 0-.477.145.72.72 0 0 0-.285.386c-.055.16-.078.453-.078.883v1.742h-1.02v-3.847h.946v.566q.503-.652 1.27-.652.335 0 .613.12.28.123.425.31.14.188.2.429c.035.156.054.387.054.684Zm0 31.648H2.683v-.375h187.93Zm0 0"/><path fill="#E7521D" d="M42.703 71.176h-.289l.027-.11c.36-1.355 1.426-2.816 2.926-2.816.875 0 1.418.46 1.418 1.203 0 .36-.125.668-.37.914-.56.551-1.74.809-3.712.809m2.879-3.922c-2.75 0-4.664 2.902-4.664 5.512 0 2.035 1.402 3.406 3.488 3.406 2.489 0 4.074-1.246 4.965-2.293a7.48 7.48 0 0 0 1.781-4.79c0-2.417-1.336-5.003-5.09-5.003-3.359 0-6.273 2.437-7.242 6.062-.047.204-.027.399.055.508q.076.094.21.094c.302 0 .427-.176.563-.52 1.164-3.273 3.422-5.152 6.188-5.152 1.344 0 2.445.442 3.184 1.277.652.735 1.011 1.778 1.011 2.93 0 2.82-2.09 5.867-5.465 5.867-.77 0-1.402-.273-1.828-.785-.457-.555-.633-1.332-.476-2.14l.011-.07h.075c2.574.046 4.23-.34 5.074-1.173.422-.41.633-.945.633-1.586 0-1.304-.97-2.144-2.473-2.144m10.328-1.969v4.317q0 .068.07.066h3.172q.991.001 1.602-.613.614-.613.613-1.602c0-.66-.203-1.195-.613-1.613q-.61-.621-1.602-.621H55.98q-.07 0-.07.066m5.543 10.695-2.508-5.289a.064.064 0 0 0-.066-.05H55.98q-.07 0-.07.07v5.219q0 .169-.168.168h-.87q-.172 0-.173-.168V64.332q.001-.17.172-.172h4.418q1.464 0 2.371.914.903.915.903 2.38.001 1.195-.649 2.026-.645.84-1.758 1.075-.065.033-.031.086l2.559 5.254a.3.3 0 0 1 .015.085q-.001.118-.136.118h-.903q-.153 0-.207-.118m-26.969-1.57q.64-.614.641-1.652c0-.695-.223-1.25-.656-1.664q-.661-.621-1.766-.621H29.75q-.065 0-.066.066v4.418q0 .065.066.066h3.02c.714 0 1.289-.203 1.714-.613m-4.8-9.125v4.094q0 .07.066.07h2.902q1.072 0 1.711-.562.64-.569.64-1.504c0-.656-.214-1.184-.64-1.574q-.638-.591-1.71-.59H29.75q-.065 0-.066.066m4.773 4.692c.613.25 1.082.62 1.398 1.109q.478.731.477 1.773c0 1.024-.324 1.817-.977 2.387q-.982.851-2.585.852h-4.125c-.118 0-.172-.055-.172-.168V64.332c0-.113.054-.172.172-.172h4.007q1.654 0 2.598.82c.633.543.95 1.313.95 2.301q-.001.937-.454 1.594-.45.658-1.289 1c-.055.035-.055.066 0 .102M22.586 64.16h.887q.169.001.168.172V75.93q0 .169-.168.168h-.871q-.17 0-.168-.168v-9.485a.08.08 0 0 0-.036-.066q-.034-.018-.05.035l-2.782 4.262q-.087.119-.203.12h-.445a.25.25 0 0 1-.203-.105l-2.781-4.226q-.017-.053-.051-.035-.035.018-.035.066v9.434q0 .169-.168.168h-.871q-.172 0-.172-.168V64.332q0-.17.172-.172h.886q.137 0 .203.102l3.207 4.863q.017.017.051.016.035.001.051-.016l3.172-4.844q.086-.119.207-.12M4.672 72.745q.029.028.062.027h4.399a.07.07 0 0 0 .058-.027q.025-.024.008-.058L6.984 65.73q-.018-.035-.05-.035a.06.06 0 0 0-.055.035l-2.215 6.957q-.017.035.008.06m5.57 3.214-.683-2.148q-.018-.05-.07-.051H4.39c-.036 0-.059.02-.067.05l-.683 2.149q-.053.139-.203.137h-.922q-.188 0-.137-.188l3.77-11.613q.051-.136.203-.137h1.16q.153.001.207.137l3.785 11.613.016.07q0 .118-.153.118h-.922c-.101 0-.172-.043-.203-.137"/><path fill="#4E626D" d="M95.043 80.473h-1.324q-.017 0-.016.011v.805q-.001.017.016.016h.91c.023 0 .039.011.039.035v.238q-.002.035-.04.035h-.91q-.016-.001-.015.016v.82q-.001.017.016.016h1.324q.04 0 .039.039v.234q0 .038-.039.04h-1.66q-.041-.002-.04-.04V80.2q-.001-.04.04-.039h1.66q.04-.001.039.04v.234q0 .04-.039.039m-3.89.011v.84c0 .008.003.016.011.016h.625a.43.43 0 0 0 .316-.121.4.4 0 0 0 .122-.313.43.43 0 0 0-.122-.316.43.43 0 0 0-.316-.117h-.625q-.012 0-.012.011m1.09 2.266-.523-1.117q-.005-.012-.016-.012h-.539q-.012.002-.012.016v1.101c0 .024-.015.04-.039.04h-.285c-.023 0-.035-.016-.035-.04V80.2q0-.04.035-.039h1.008c.148 0 .281.031.39.094a.64.64 0 0 1 .266.262.8.8 0 0 1 .094.386.73.73 0 0 1-.137.446.67.67 0 0 1-.379.246q-.015.005-.007.015l.542 1.121v.02q.001.026-.027.027h-.297q-.029-.001-.039-.027m-3.64-.742q.005.007.011.008h.86q.01-.001.015-.008.006-.006 0-.012l-.433-1.387c-.004-.004-.004-.007-.012-.007a.01.01 0 0 0-.008.007l-.437 1.387q-.001.006.004.012m1.117.738-.133-.437q-.005-.012-.016-.012h-1.05q-.012 0-.012.012l-.137.437q-.012.03-.043.031h-.305q-.04 0-.027-.043l.817-2.543q.012-.03.042-.03h.375q.036 0 .047.03l.825 2.543.003.016q0 .026-.035.027h-.304a.05.05 0 0 1-.047-.03m-3.684-.044a.73.73 0 0 1-.32-.305.85.85 0 0 1-.117-.449v-.965q0-.256.117-.449a.74.74 0 0 1 .32-.297q.206-.105.477-.105.269-.002.472.101.21.1.32.29a.8.8 0 0 1 .114.433v.004q0 .02-.012.027c-.004.012-.015.012-.023.012l-.285.016c-.024 0-.04-.012-.04-.032v-.011a.5.5 0 0 0-.148-.387.54.54 0 0 0-.398-.145q-.251-.001-.403.145a.5.5 0 0 0-.152.387v.992q0 .24.152.387a.57.57 0 0 0 .403.144q.252-.001.398-.144a.5.5 0 0 0 .149-.387v-.008q.001-.033.039-.031l.285.011q.035-.001.035.04a.8.8 0 0 1-.113.433.76.76 0 0 1-.32.297 1.1 1.1 0 0 1-.473.102q-.27 0-.477-.106m-2.297-.95v-.237q-.001-.036.04-.036h1.152q.04 0 .039.036v.238q.001.035-.04.035h-1.152q-.04 0-.039-.035m-1.984.95a.75.75 0 0 1-.32-.306.85.85 0 0 1-.114-.449v-.965c0-.171.035-.32.114-.449a.76.76 0 0 1 .32-.297q.207-.105.476-.105.272-.002.473.101a.74.74 0 0 1 .32.29.8.8 0 0 1 .114.433v.55q0 .02-.012.028c-.004.012-.016.012-.023.012h-1.446c-.02 0-.02-.305.008-.305h1.117v-.27q0-.24-.152-.386a.54.54 0 0 0-.399-.145q-.25-.001-.402.145a.5.5 0 0 0-.152.363v.996c0 .18.05.309.152.407a.57.57 0 0 0 .402.144q.252-.001.399-.144a.5.5 0 0 0 .152-.387v-.008q0-.033.035-.031l.286.011q.035-.001.035.04a.79.79 0 0 1-.434.73 1.05 1.05 0 0 1-.473.102q-.271 0-.476-.106m-3.567-2.219v.84c0 .008.008.016.016.016h.625a.43.43 0 0 0 .317-.121.42.42 0 0 0 .12-.313.44.44 0 0 0-.12-.316.43.43 0 0 0-.317-.117h-.625q-.014 0-.016.011m1.094 2.266-.523-1.117q-.005-.012-.016-.012h-.539a.02.02 0 0 0-.016.016v1.101c0 .024-.011.04-.035.04h-.285c-.023 0-.039-.016-.039-.04V80.2q.002-.04.04-.039h1.003q.224 0 .395.094a.66.66 0 0 1 .265.262.8.8 0 0 1 .09.386.73.73 0 0 1-.133.446.7.7 0 0 1-.383.246q-.012.005-.007.015l.543 1.121q.005.007.004.02.001.026-.028.027h-.297q-.031-.001-.039-.027m-2.246-2.277h-1.328q-.012 0-.012.011v.805q0 .017.012.016h.914q.035 0 .035.035v.238q0 .035-.035.035h-.914q-.012-.001-.012.016v.82q0 .017.012.016h1.328q.035 0 .035.039v.234q0 .038-.035.04h-1.664q-.035-.002-.035-.04V80.2q0-.04.035-.039h1.664q.035-.001.035.04v.234q0 .04-.035.039m-3.867 2.23a.8.8 0 0 1-.32-.305.9.9 0 0 1-.114-.449v-.965q.001-.256.114-.449a.8.8 0 0 1 .32-.297q.208-.105.477-.105.271-.002.476.101a.73.73 0 0 1 .317.29.8.8 0 0 1 .117.433v.004q0 .02-.012.027c-.008.012-.016.012-.027.012l-.286.016q-.035-.001-.035-.032v-.011q0-.24-.148-.387a.55.55 0 0 0-.402-.145q-.252-.001-.399.145a.5.5 0 0 0-.152.387v.992q0 .24.152.387c.098.093.23.144.399.144q.25-.001.402-.144a.52.52 0 0 0 .148-.387v-.008q0-.033.035-.031l.286.011q.04-.001.039.04a.8.8 0 0 1-.434.73 1.1 1.1 0 0 1-.476.102 1.05 1.05 0 0 1-.477-.106m-1.563-2.543h.286q.035-.001.035.04v2.538q0 .038-.035.04h-.274c-.02 0-.031-.012-.043-.028l-1.172-1.91q0-.01-.011-.008-.007 0-.008.012l.004 1.894c0 .024-.012.04-.035.04h-.286c-.023 0-.035-.016-.035-.04V80.2q0-.04.035-.039h.278c.02 0 .031.012.043.028l1.168 1.91q.001.009.007.007.012 0 .012-.011L71.57 80.2q0-.04.035-.039m-3.765 1.848q.006.007.012.008h.859q.006-.001.012-.008.005-.006.004-.012l-.434-1.387q-.006-.007-.012-.007t-.011.007l-.434 1.387q-.001.006.004.012m1.117.738-.133-.437q-.005-.012-.015-.012h-1.051q-.011 0-.016.012l-.133.437a.05.05 0 0 1-.046.031h-.301q-.043 0-.032-.043l.82-2.543q.014-.03.044-.03h.375q.033 0 .043.03l.828 2.543.004.016q0 .026-.035.027h-.305a.05.05 0 0 1-.047-.03m-3.684-.044a.76.76 0 0 1-.324-.305.9.9 0 0 1-.113-.449v-.965q.001-.256.113-.449a.77.77 0 0 1 .324-.297q.206-.105.477-.105.266-.002.473.101a.77.77 0 0 1 .433.723v.004q0 .02-.011.027c-.008.012-.016.012-.024.012l-.285.016q-.04-.001-.04-.032v-.011q0-.24-.148-.387a.55.55 0 0 0-.398-.145q-.25-.001-.402.145a.5.5 0 0 0-.153.387v.992q0 .24.153.387a.57.57 0 0 0 .402.144q.246-.001.398-.144a.52.52 0 0 0 .149-.387v-.008q0-.033.039-.031l.285.011q.035-.001.035.04-.001.246-.113.433a.8.8 0 0 1-.32.297 1.1 1.1 0 0 1-.473.102q-.27 0-.477-.106m-3.539 0a.75.75 0 0 1-.32-.305.85.85 0 0 1-.113-.449v-.965c0-.171.035-.32.113-.449a.76.76 0 0 1 .32-.297q.206-.105.477-.105.269-.002.473.101.21.1.32.29a.8.8 0 0 1 .113.433v.004c0 .012 0 .023-.012.027-.003.012-.015.012-.023.012l-.285.016q-.035-.001-.035-.032v-.011q0-.24-.153-.387a.54.54 0 0 0-.398-.145q-.25-.001-.402.145a.5.5 0 0 0-.149.387v.992c0 .16.047.289.149.387a.57.57 0 0 0 .402.144q.251-.001.398-.144a.5.5 0 0 0 .153-.387v-.008q0-.033.035-.031l.285.011q.035-.001.035.04a.8.8 0 0 1-.113.433.76.76 0 0 1-.32.297 1.1 1.1 0 0 1-.473.102q-.27 0-.477-.106m-1.597.035V80.2q.001-.04.039-.039h.281q.04-.001.04.04v2.538c0 .024-.013.04-.04.04h-.281c-.024 0-.04-.016-.04-.04M59.43 80.2v.239c0 .023-.012.039-.035.039h-.72c-.007 0-.015.003-.015.011v2.25c0 .024-.012.04-.035.04h-.285c-.024 0-.035-.016-.035-.04v-2.25c0-.008-.008-.011-.016-.011h-.684q-.04-.002-.039-.04V80.2q-.001-.04.04-.039h1.789q.035-.001.035.04m-3.758 2.538V80.2q0-.04.035-.039h.285q.035-.001.035.04v2.25q.002.015.016.015h1.289c.023 0 .04.012.04.039v.234c0 .024-.017.04-.04.04h-1.625c-.023 0-.035-.016-.035-.04m-2.195-.73a.03.03 0 0 0 .015.008h.86q.005-.001.011-.008.005-.006.004-.012l-.433-1.387q-.006-.007-.012-.007t-.012.007l-.433 1.387c-.004.004 0 .008 0 .012m1.12.738-.132-.437q-.005-.012-.016-.012H53.4q-.011 0-.016.012l-.133.437a.05.05 0 0 1-.047.031h-.3q-.043 0-.032-.043l.816-2.543c.012-.02.024-.03.047-.03h.375q.031 0 .043.03l.825 2.543.003.016c0 .016-.007.027-.03.027h-.31q-.03 0-.042-.03m-2.723-.403q.127-.117.125-.32a.42.42 0 0 0-.125-.317.5.5 0 0 0-.348-.117h-.582q-.016 0-.015.012v.843q0 .017.015.016h.594a.47.47 0 0 0 .336-.117m-.945-1.86v.79q0 .016.015.015h.563a.5.5 0 0 0 .344-.11.37.37 0 0 0 .125-.292.4.4 0 0 0-.125-.305.5.5 0 0 0-.344-.11h-.563q-.016 0-.015.012m1.035.95q.393.168.394.625.001.345-.226.53-.23.189-.594.188h-.934q-.035-.001-.035-.039V80.2q0-.04.035-.039h.903q.387 0 .605.18c.14.117.215.289.215.515q0 .404-.363.555c-.012.012-.012.016 0 .024m-3.078-.961h-1.325c-.007 0-.015.004-.015.011v.805c0 .012.008.016.016.016h.91q.035 0 .035.035v.238q0 .035-.035.035h-.91c-.008 0-.016.004-.016.016v1.11q0 .036-.035.038h-.285q-.038-.002-.04-.039V80.2q.002-.04.04-.039h1.66q.035-.001.035.04v.234q0 .04-.035.039m-3.02 1.87a.56.56 0 0 0 .156-.413v-.91a.57.57 0 0 0-.156-.418.54.54 0 0 0-.41-.16.54.54 0 0 0-.41.16.58.58 0 0 0-.156.418v.91q.002.257.156.414a.57.57 0 0 0 .41.156.57.57 0 0 0 .41-.156m-.894.351a.8.8 0 0 1-.325-.312 1 1 0 0 1-.113-.469v-.89q.002-.266.113-.465a.8.8 0 0 1 .325-.317q.209-.11.484-.11t.484.11q.212.111.325.317.117.2.117.464v.891q0 .264-.117.469a.74.74 0 0 1-.325.312 1 1 0 0 1-.484.114 1 1 0 0 1-.484-.114m-3.563.004a.8.8 0 0 1-.324-.3.9.9 0 0 1-.113-.454v-.957q.001-.257.113-.449a.8.8 0 0 1 .324-.3q.206-.106.477-.106c.175 0 .336.035.472.101a.8.8 0 0 1 .32.29.8.8 0 0 1 .114.417v.043q0 .036-.035.036h-.285c-.024 0-.04-.012-.04-.036v-.035q0-.223-.148-.363a.56.56 0 0 0-.398-.14q-.251-.001-.403.144a.52.52 0 0 0-.152.39v.977c0 .164.055.293.156.39a.58.58 0 0 0 .414.145c.16 0 .293-.043.387-.129a.44.44 0 0 0 .145-.351v-.29q.001-.016-.016-.015h-.504q-.035 0-.035-.035v-.234q0-.036.035-.036h.844q.035 0 .035.035v.477c0 .285-.082.508-.246.66-.16.153-.383.23-.66.23q-.27 0-.477-.105m-1.566-2.539h.285q.04-.001.039.04v2.538c0 .024-.012.04-.04.04h-.273q-.023-.002-.042-.028l-1.168-1.91q-.006-.01-.012-.008c-.008 0-.008.004-.008.012l.004 1.894c0 .024-.012.04-.04.04h-.284c-.024 0-.035-.016-.035-.04V80.2q0-.04.035-.039h.277q.03.002.047.028l1.164 1.91q.006.009.012.007.007 0 .008-.011L39.81 80.2q0-.04.035-.039m-2.809 2.578V80.2q-.001-.04.04-.039h.28q.041-.001.04.04v2.538c0 .024-.012.04-.04.04h-.28c-.028 0-.04-.016-.04-.04m-2.39 0V80.2q.002-.04.039-.039h.28q.041-.001.04.04v2.25q-.001.015.016.015h1.289q.035 0 .035.039v.234c0 .024-.012.04-.035.04h-1.625c-.024 0-.04-.016-.04-.04m-.792-2.265h-1.329q-.016 0-.015.011v.805q0 .017.015.016h.91q.041 0 .04.035v.238q.001.035-.04.035h-.91q-.016-.001-.015.016v.82q0 .017.015.016h1.329q.035 0 .035.039v.234c0 .024-.012.04-.035.04h-1.664c-.024 0-.036-.016-.036-.04V80.2q0-.04.035-.039h1.665q.035-.001.035.04v.234q0 .04-.035.039m-3.899 1.992h.582a.46.46 0 0 0 .348-.133.5.5 0 0 0 .133-.355V80.96a.5.5 0 0 0-.13-.36.48.48 0 0 0-.35-.128h-.583q-.014 0-.015.011v1.965q.002.017.015.016m-.371.273V80.2q0-.04.035-.039h.903q.392.002.62.203a.68.68 0 0 1 .235.543v1.121q0 .342-.234.543-.23.206-.621.207h-.903q-.035-.001-.035-.039m-1.324-.394a.56.56 0 0 0 .156-.414v-.91a.57.57 0 0 0-.156-.418.54.54 0 0 0-.41-.16.54.54 0 0 0-.41.16.58.58 0 0 0-.157.418v.91q.002.257.157.414a.56.56 0 0 0 .41.156.57.57 0 0 0 .41-.156m-.895.351a.8.8 0 0 1-.324-.312.9.9 0 0 1-.113-.469v-.89q-.002-.266.113-.465a.8.8 0 0 1 .324-.317q.21-.11.485-.11.276 0 .484.11.212.111.324.317.117.2.117.464v.891q0 .264-.117.469a.74.74 0 0 1-.324.312.97.97 0 0 1-.484.114 1 1 0 0 1-.485-.114m-1.562-2.535h.281q.04-.001.04.04v2.538c0 .024-.013.04-.04.04h-.281c-.028 0-.04-.016-.04-.04v-1.914q0-.011-.007-.011c-.004-.004-.008 0-.012.003l-.531.817a.06.06 0 0 1-.047.023h-.14c-.02 0-.032-.008-.047-.023l-.54-.809q0-.01-.007-.008-.01.005-.008.016v1.906c0 .024-.012.04-.04.04h-.284c-.024 0-.035-.016-.035-.04V80.2q0-.04.035-.039h.285q.03 0 .047.024l.652.976q.006.007.012.008.006-.001.011-.008l.649-.976a.06.06 0 0 1 .047-.024m-4.946 2.305h.586a.45.45 0 0 0 .344-.133.5.5 0 0 0 .133-.355V80.96a.5.5 0 0 0-.129-.36.47.47 0 0 0-.348-.128h-.586q-.01 0-.011.011v1.965q0 .017.011.016m-.37.273V80.2q0-.04.035-.039h.906q.387.002.62.203.23.205.231.543v1.121q-.001.342-.23.543-.234.206-.621.207h-.906q-.036-.001-.036-.039m-.797-2.265h-1.324q-.016 0-.015.011v.805q0 .017.015.016h.91q.036 0 .036.035v.238q0 .035-.036.035h-.91q-.016-.001-.015.016v.82q0 .017.015.016h1.325c.023 0 .039.012.039.039v.234c0 .024-.016.04-.04.04h-1.66c-.027 0-.039-.016-.039-.04V80.2q-.001-.04.04-.039h1.66c.023 0 .039.012.039.04v.234q-.002.04-.04.039m-3.863 2.23a.73.73 0 0 1-.32-.305.85.85 0 0 1-.117-.449v-.965q0-.256.117-.449a.74.74 0 0 1 .32-.297q.206-.105.477-.105.269-.002.472.101a.77.77 0 0 1 .434.723v.004q0 .02-.012.027c-.008.012-.015.012-.023.012l-.285.016q-.038-.001-.04-.032v-.011a.5.5 0 0 0-.148-.387.54.54 0 0 0-.398-.145q-.251-.001-.403.145a.5.5 0 0 0-.152.387v.992q0 .24.152.387a.57.57 0 0 0 .403.144c.164 0 .3-.05.398-.144a.5.5 0 0 0 .149-.387v-.008q.002-.033.039-.031l.285.011q.035-.001.035.04-.001.246-.113.433a.8.8 0 0 1-.32.297 1.1 1.1 0 0 1-.473.102q-.27 0-.477-.106m-1.562-2.543h.281q.04-.001.039.04v2.538q0 .038-.039.04h-.273q-.025-.002-.043-.028l-1.168-1.91c-.004-.008-.008-.008-.012-.008q-.01 0-.008.012l.004 1.894q.001.038-.04.04h-.28q-.041-.002-.04-.04V80.2q-.001-.04.04-.039h.273q.03.002.047.028l1.164 1.91q.006.009.012.007.007 0 .008-.011l-.004-1.895q-.002-.04.039-.039m-3.77 1.848q.005.007.016.008h.86q.005-.001.01-.008.008-.006 0-.012l-.433-1.387q0-.007-.011-.007a.01.01 0 0 0-.008.007l-.434 1.387q-.006.006 0 .012m1.121.738-.136-.437q-.005-.012-.016-.012h-1.047q-.011 0-.016.012l-.136.437q-.01.03-.043.031h-.305q-.04 0-.027-.043l.816-2.543a.05.05 0 0 1 .047-.03h.371q.036 0 .047.03l.824 2.543.004.016q0 .026-.035.027h-.305q-.033 0-.043-.03m-3.074 0-.8-2.544-.005-.016c0-.015.012-.027.032-.027h.304c.024 0 .035.012.047.031l.613 2.067q.006.007.012.008.006-.001.012-.008l.617-2.067q.011-.03.04-.03h.296q.043 0 .031.042l-.808 2.543a.05.05 0 0 1-.047.031h-.301q-.036 0-.043-.03m-2.73-.282h.582a.45.45 0 0 0 .347-.133.5.5 0 0 0 .133-.355V80.96a.5.5 0 0 0-.129-.36.48.48 0 0 0-.351-.128H5.81q-.012 0-.012.011v1.965q0 .017.012.016m-.372.273V80.2q0-.04.036-.039h.906q.387.002.621.203.229.205.23.543v1.121q-.001.342-.23.543-.234.206-.621.207h-.906q-.036-.001-.035-.039m-2.192-.73q.006.007.012.008h.86q.009-.001.015-.008c0-.004.004-.008 0-.012L3.7 80.61q0-.007-.011-.007-.006 0-.012.007l-.434 1.387q-.001.006.004.012m1.117.738-.133-.437q-.004-.012-.015-.012h-1.05q-.013 0-.013.012l-.136.437q-.013.03-.043.031h-.305q-.039 0-.031-.043l.82-2.543q.013-.03.043-.03h.375q.036 0 .043.03l.828 2.543.004.016q0 .026-.035.027H4.41a.05.05 0 0 1-.047-.03"/></svg>